<?xml version="1.0" encoding="UTF-8"?>
<svg id="Capa_1" data-name="Capa 1" xmlns="http://www.w3.org/2000/svg" viewBox="0 0 1080 1080">
  <defs>
    <style>
      .cls-1 {
        fill: #fff;
      }

      .cls-2 {
        stroke: #fff;
        stroke-width: 16.73px;
      }

      .cls-2, .cls-3 {
        fill: none;
        stroke-linejoin: round;
      }

      .cls-3 {
        stroke: #1d1d1b;
        stroke-width: 74.35px;
      }

      .cls-4 {
        fill: #1d1d1b;
      }
    </style>
  </defs>
  <g>
    <g>
      <path class="cls-4" d="m378.44,508.17h-47.39v98.05l-15.8,16.34h-110.06l-16.32-16.89V214.01l16.32-16.34h252.23c7.72,0,15.44,1.91,23.17,5.72,7.72,3.81,14.48,8.72,20.27,14.71,5.79,5.99,10.53,12.99,14.22,20.97,3.69,7.99,5.53,15.99,5.53,23.97v179.76c0,4-1.67,7.99-5,11.98-3.34,4-6.94,7.72-10.79,11.17-3.87,3.46-7.46,6.72-10.8,9.8-3.34,3.09-5,5.72-5,7.9s1.66,4.82,5,7.9c3.33,3.09,6.93,6.36,10.8,9.81,3.86,3.46,7.45,7.18,10.79,11.17,3.33,4,5,7.99,5,11.98v147.08h-78.99c-8.08,0-15.89-1.91-23.43-5.72-7.55-3.81-14.22-8.72-20.01-14.71-5.79-5.99-10.53-12.9-14.22-20.7-3.69-7.81-5.53-15.88-5.53-24.24v-98.05Zm-47.39-49.03h47.39v-212.45h-47.39v212.45Z"/>
      <path class="cls-4" d="m559.38,798.66l205.37-275.9c4.18-5.62.17-13.6-6.83-13.6h-36.42l-126.76,168.47h-19.56s-15.8-15.8-15.8-15.8v-144.39l54.61-71.47h261.34l15.8,15.8v74.26l-194.28,275.67c-3.98,5.64.06,13.42,6.96,13.42h31.91l121.01-170.05h20.46l13.94,17.66v145.91c-1.02,36.42-24.81,63.71-46.22,63.71h-269.21s-16.32-16.32-16.32-16.32v-67.35Z"/>
    </g>
    <g>
      <path class="cls-4" d="m378.44,508.17h-47.39v98.05l-15.8,16.34h-110.06l-16.32-16.89V214.01l16.32-16.34h252.23c7.72,0,15.44,1.91,23.17,5.72,7.72,3.81,14.48,8.72,20.27,14.71,5.79,5.99,10.53,12.99,14.22,20.97,3.69,7.99,5.53,15.99,5.53,23.97v179.76c0,4-1.67,7.99-5,11.98-3.34,4-6.94,7.72-10.79,11.17-3.87,3.46-7.46,6.72-10.8,9.8-3.34,3.09-5,5.72-5,7.9s1.66,4.82,5,7.9c3.33,3.09,6.93,6.36,10.8,9.81,3.86,3.46,7.45,7.18,10.79,11.17,3.33,4,5,7.99,5,11.98v147.08h-78.99c-8.08,0-15.89-1.91-23.43-5.72-7.55-3.81-14.22-8.72-20.01-14.71-5.79-5.99-10.53-12.9-14.22-20.7-3.69-7.81-5.53-15.88-5.53-24.24v-98.05Zm-47.39-49.03h47.39v-212.45h-47.39v212.45Z"/>
      <path class="cls-4" d="m559.38,798.66l205.37-275.9c4.18-5.62.17-13.6-6.83-13.6h-36.42l-126.76,168.47h-19.56s-15.8-15.8-15.8-15.8v-144.39l54.61-71.47h261.34l15.8,15.8v74.26l-194.28,275.67c-3.98,5.64.06,13.42,6.96,13.42h31.91l121.01-170.05h20.46l13.94,17.66v145.91c-1.02,36.42-24.81,63.71-46.22,63.71h-269.21s-16.32-16.32-16.32-16.32v-67.35Z"/>
    </g>
    <g>
      <path class="cls-3" d="m378.44,508.17h-47.39v98.05l-15.8,16.34h-110.06l-16.32-16.89V214.01l16.32-16.34h252.23c7.72,0,15.44,1.91,23.17,5.72,7.72,3.81,14.48,8.72,20.27,14.71,5.79,5.99,10.53,12.99,14.22,20.97,3.69,7.99,5.53,15.99,5.53,23.97v179.76c0,4-1.67,7.99-5,11.98-3.34,4-6.94,7.72-10.79,11.17-3.87,3.46-7.46,6.72-10.8,9.8-3.34,3.09-5,5.72-5,7.9s1.66,4.82,5,7.9c3.33,3.09,6.93,6.36,10.8,9.81,3.86,3.46,7.45,7.18,10.79,11.17,3.33,4,5,7.99,5,11.98v147.08h-78.99c-8.08,0-15.89-1.91-23.43-5.72-7.55-3.81-14.22-8.72-20.01-14.71-5.79-5.99-10.53-12.9-14.22-20.7-3.69-7.81-5.53-15.88-5.53-24.24v-98.05Zm-47.39-49.03h47.39v-212.45h-47.39v212.45Z"/>
      <path class="cls-3" d="m559.38,798.66l205.37-275.9c4.18-5.62.17-13.6-6.83-13.6h-36.42l-126.76,168.47h-19.56s-15.8-15.8-15.8-15.8v-144.39l54.61-71.47h261.34l15.8,15.8v74.26l-194.28,275.67c-3.98,5.64.06,13.42,6.96,13.42h31.91l121.01-170.05h20.46l13.94,17.66v145.91c-1.02,36.42-24.81,63.71-46.22,63.71h-269.21s-16.32-16.32-16.32-16.32v-67.35Z"/>
    </g>
    <g>
      <path class="cls-1" d="m528.05,679.03h-86.42c-9.22,0-18.23-2.19-26.79-6.52-8.25-4.17-15.66-9.61-22-16.18-6.33-6.55-11.58-14.18-15.59-22.69-4.14-8.78-6.24-18-6.24-27.42v-90.62h-32.52v93.62l-20.08,20.77h-116.37l-20.6-21.32V210.93l20.68-20.7h255.32c8.84,0,17.74,2.18,26.46,6.49,8.46,4.18,15.98,9.63,22.33,16.21,6.34,6.56,11.6,14.31,15.62,23.02,4.12,8.94,6.21,18.05,6.21,27.09v179.77c0,5.77-2.26,11.4-6.73,16.75-3.55,4.25-7.43,8.27-11.55,11.95-3.68,3.29-7.29,6.56-10.7,9.72-1.19,1.11-1.88,1.92-2.26,2.44.38.52,1.07,1.33,2.26,2.43,3.41,3.16,7,6.43,10.7,9.72,4.12,3.69,8,7.7,11.55,11.94,4.47,5.37,6.74,11.01,6.74,16.76v154.52Zm-204.44-178.29h62.26v105.49c0,7.31,1.58,14.2,4.82,21.07,3.32,7.04,7.64,13.33,12.84,18.71,5.19,5.37,11.25,9.82,18.02,13.24,6.55,3.31,13.12,4.92,20.08,4.92h71.55v-139.65c0-2.18-1.1-4.61-3.28-7.23-3.08-3.69-6.47-7.18-10.04-10.38-3.76-3.35-7.42-6.68-10.89-9.89-4.96-4.58-7.38-8.95-7.38-13.35s2.42-8.76,7.39-13.36c3.48-3.22,7.14-6.54,10.89-9.89,3.58-3.2,6.96-6.69,10.04-10.39,2.17-2.6,3.28-5.03,3.28-7.22v-179.77c0-6.87-1.63-13.88-4.85-20.85-3.32-7.2-7.63-13.56-12.81-18.92-5.16-5.34-11.29-9.79-18.22-13.21-6.66-3.28-13.34-4.95-19.88-4.95h-249.15l-11.97,11.98v385.59l12.04,12.46h103.75l11.52-11.91v-102.48Zm62.26-34.16h-62.26v-227.32h62.26v227.32Zm-47.39-14.87h32.52v-197.58h-32.52v197.58Z"/>
      <path class="cls-1" d="m844.92,889.77h-272.29l-20.68-20.68v-72.9l206.84-277.88c.11-.15.4-.53.1-1.13-.3-.59-.78-.59-.96-.59h-32.71l-126.76,168.47h-26.35l-20.15-20.15v-149.99l58.37-76.39h268.09l20.16,20.15v79.69l-1.36,1.93-194.28,275.67c-.1.15-.38.54-.08,1.12.3.58.78.58.96.58h28.08l121.01-170.05h27.9l17.77,22.51v148.7c-.52,18.56-6.56,36.26-17.01,49.84-10.32,13.41-23.67,21.1-36.64,21.1Zm-266.13-14.87h266.13c17.19,0,37.85-24.62,38.78-56.38v-143.23l-10.11-12.8h-13.03l-121.01,170.05h-35.75c-5.98,0-11.41-3.3-14.16-8.61s-2.32-11.64,1.12-16.53l192.93-273.74v-68.82l-11.44-11.44h-254.58l-50.85,66.55v138.8l11.44,11.44h12.77l126.76-168.47h40.13c6.07,0,11.53,3.37,14.25,8.79,2.72,5.42,2.16,11.81-1.46,16.68l-203.9,273.92v61.81l11.97,11.97Z"/>
    </g>
  </g>
  <g>
    <polygon class="cls-4" points="504.02 295.73 571.11 332.9 640.62 300.51 625 373.72 678.43 427.82 601.7 435.9 565.2 501.73 533.4 433.51 457.41 420.09 514.49 369.85 504.02 295.73"/>
    <polygon class="cls-3" points="504.02 295.73 571.11 332.9 640.62 300.51 625 373.72 678.43 427.82 601.7 435.9 565.2 501.73 533.4 433.51 457.41 420.09 514.49 369.85 504.02 295.73"/>
    <polygon class="cls-2" points="504.02 295.73 571.11 332.9 640.62 300.51 625 373.72 678.43 427.82 601.7 435.9 565.2 501.73 533.4 433.51 457.41 420.09 514.49 369.85 504.02 295.73"/>
  </g>
</svg>